<mxfile host="app.diagrams.net" modified="2024-06-11T20:32:40.190Z" agent="Mozilla/5.0 (Macintosh; Intel Mac OS X 10_15_7) AppleWebKit/605.1.15 (KHTML, like Gecko) Version/17.4.1 Safari/605.1.15" etag="OkkMlbYz9xHvWKQdpwCN" version="24.5.3" type="github">
  <diagram id="C5RBs43oDa-KdzZeNtuy" name="Page-1">
    <mxGraphModel dx="2394" dy="1534" grid="1" gridSize="10" guides="1" tooltips="1" connect="1" arrows="1" fold="1" page="1" pageScale="1" pageWidth="827" pageHeight="1169" math="0" shadow="0">
      <root>
        <mxCell id="WIyWlLk6GJQsqaUBKTNV-0" />
        <mxCell id="WIyWlLk6GJQsqaUBKTNV-1" parent="WIyWlLk6GJQsqaUBKTNV-0" />
        <mxCell id="p7InJJvpdyXH1uWiS8rg-0" value="" style="endArrow=none;dashed=1;html=1;rounded=0;" edge="1" parent="WIyWlLk6GJQsqaUBKTNV-1">
          <mxGeometry width="50" height="50" relative="1" as="geometry">
            <mxPoint y="299" as="sourcePoint" />
            <mxPoint x="1080" y="300" as="targetPoint" />
          </mxGeometry>
        </mxCell>
        <mxCell id="p7InJJvpdyXH1uWiS8rg-1" value="" style="endArrow=none;dashed=1;html=1;rounded=0;" edge="1" parent="WIyWlLk6GJQsqaUBKTNV-1">
          <mxGeometry width="50" height="50" relative="1" as="geometry">
            <mxPoint y="19" as="sourcePoint" />
            <mxPoint x="1200" y="19" as="targetPoint" />
          </mxGeometry>
        </mxCell>
        <mxCell id="p7InJJvpdyXH1uWiS8rg-2" value="" style="endArrow=none;dashed=1;html=1;rounded=0;" edge="1" parent="WIyWlLk6GJQsqaUBKTNV-1">
          <mxGeometry width="50" height="50" relative="1" as="geometry">
            <mxPoint y="499" as="sourcePoint" />
            <mxPoint x="1200" y="500" as="targetPoint" />
          </mxGeometry>
        </mxCell>
        <mxCell id="p7InJJvpdyXH1uWiS8rg-3" value="&lt;meta charset=&quot;utf-8&quot;&gt;&lt;span style=&quot;font-style: normal; font-variant-caps: normal; font-weight: 400; letter-spacing: normal; orphans: auto; text-align: start; text-indent: 0px; text-transform: none; white-space: normal; widows: auto; word-spacing: 0px; -webkit-text-stroke-width: 0px; text-decoration: none; caret-color: rgb(0, 0, 0); color: rgb(0, 0, 0); font-size: medium; float: none; display: inline !important;&quot;&gt;Менеджер юридического отдела&lt;/span&gt;" style="text;html=1;align=center;verticalAlign=middle;whiteSpace=wrap;rounded=0;rotation=270;" vertex="1" parent="WIyWlLk6GJQsqaUBKTNV-1">
          <mxGeometry x="-71" y="143" width="180" height="30" as="geometry" />
        </mxCell>
        <mxCell id="p7InJJvpdyXH1uWiS8rg-4" value="&lt;meta charset=&quot;utf-8&quot;&gt;&lt;span style=&quot;font-style: normal; font-variant-caps: normal; font-weight: 400; letter-spacing: normal; orphans: auto; text-align: start; text-indent: 0px; text-transform: none; white-space: normal; widows: auto; word-spacing: 0px; -webkit-text-stroke-width: 0px; text-decoration: none; caret-color: rgb(0, 0, 0); color: rgb(0, 0, 0); font-size: medium; float: none; display: inline !important;&quot;&gt;Начальник юридического отдела&lt;/span&gt;" style="text;html=1;align=center;verticalAlign=middle;whiteSpace=wrap;rounded=0;rotation=270;" vertex="1" parent="WIyWlLk6GJQsqaUBKTNV-1">
          <mxGeometry x="-71" y="384" width="180" height="30" as="geometry" />
        </mxCell>
        <mxCell id="p7InJJvpdyXH1uWiS8rg-5" value="" style="endArrow=none;dashed=1;html=1;rounded=0;" edge="1" parent="WIyWlLk6GJQsqaUBKTNV-1">
          <mxGeometry width="50" height="50" relative="1" as="geometry">
            <mxPoint x="41" y="499" as="sourcePoint" />
            <mxPoint x="40" y="19" as="targetPoint" />
          </mxGeometry>
        </mxCell>
        <mxCell id="p7InJJvpdyXH1uWiS8rg-10" style="edgeStyle=orthogonalEdgeStyle;rounded=0;orthogonalLoop=1;jettySize=auto;html=1;exitX=1;exitY=0.5;exitDx=0;exitDy=0;entryX=0;entryY=0.5;entryDx=0;entryDy=0;" edge="1" parent="WIyWlLk6GJQsqaUBKTNV-1" source="p7InJJvpdyXH1uWiS8rg-6" target="p7InJJvpdyXH1uWiS8rg-7">
          <mxGeometry relative="1" as="geometry" />
        </mxCell>
        <mxCell id="p7InJJvpdyXH1uWiS8rg-6" value="Начало" style="ellipse;whiteSpace=wrap;html=1;aspect=fixed;" vertex="1" parent="WIyWlLk6GJQsqaUBKTNV-1">
          <mxGeometry x="62" y="176.5" width="47" height="47" as="geometry" />
        </mxCell>
        <mxCell id="p7InJJvpdyXH1uWiS8rg-14" style="edgeStyle=orthogonalEdgeStyle;rounded=0;orthogonalLoop=1;jettySize=auto;html=1;exitX=1;exitY=0.5;exitDx=0;exitDy=0;entryX=0;entryY=0.5;entryDx=0;entryDy=0;" edge="1" parent="WIyWlLk6GJQsqaUBKTNV-1" source="p7InJJvpdyXH1uWiS8rg-7" target="p7InJJvpdyXH1uWiS8rg-11">
          <mxGeometry relative="1" as="geometry" />
        </mxCell>
        <mxCell id="p7InJJvpdyXH1uWiS8rg-7" value="Создание шаблона" style="rounded=1;whiteSpace=wrap;html=1;fontSize=12;glass=0;strokeWidth=1;shadow=0;" vertex="1" parent="WIyWlLk6GJQsqaUBKTNV-1">
          <mxGeometry x="140" y="180" width="120" height="40" as="geometry" />
        </mxCell>
        <mxCell id="p7InJJvpdyXH1uWiS8rg-15" style="edgeStyle=orthogonalEdgeStyle;rounded=0;orthogonalLoop=1;jettySize=auto;html=1;exitX=0.5;exitY=0;exitDx=0;exitDy=0;entryX=0.5;entryY=0;entryDx=0;entryDy=0;" edge="1" parent="WIyWlLk6GJQsqaUBKTNV-1" source="p7InJJvpdyXH1uWiS8rg-11" target="p7InJJvpdyXH1uWiS8rg-13">
          <mxGeometry relative="1" as="geometry" />
        </mxCell>
        <mxCell id="p7InJJvpdyXH1uWiS8rg-16" value="Нет" style="edgeLabel;html=1;align=center;verticalAlign=middle;resizable=0;points=[];" vertex="1" connectable="0" parent="p7InJJvpdyXH1uWiS8rg-15">
          <mxGeometry x="-0.1027" y="1" relative="1" as="geometry">
            <mxPoint as="offset" />
          </mxGeometry>
        </mxCell>
        <mxCell id="p7InJJvpdyXH1uWiS8rg-19" style="edgeStyle=orthogonalEdgeStyle;rounded=0;orthogonalLoop=1;jettySize=auto;html=1;exitX=0.5;exitY=1;exitDx=0;exitDy=0;entryX=0;entryY=0.5;entryDx=0;entryDy=0;" edge="1" parent="WIyWlLk6GJQsqaUBKTNV-1" source="p7InJJvpdyXH1uWiS8rg-11" target="p7InJJvpdyXH1uWiS8rg-21">
          <mxGeometry relative="1" as="geometry">
            <mxPoint x="525" y="260" as="targetPoint" />
          </mxGeometry>
        </mxCell>
        <mxCell id="p7InJJvpdyXH1uWiS8rg-20" value="Да" style="edgeLabel;html=1;align=center;verticalAlign=middle;resizable=0;points=[];" vertex="1" connectable="0" parent="p7InJJvpdyXH1uWiS8rg-19">
          <mxGeometry x="-0.0276" y="1" relative="1" as="geometry">
            <mxPoint as="offset" />
          </mxGeometry>
        </mxCell>
        <mxCell id="p7InJJvpdyXH1uWiS8rg-11" value="Сохранить версию?" style="rhombus;whiteSpace=wrap;html=1;shadow=0;fontFamily=Helvetica;fontSize=12;align=center;strokeWidth=1;spacing=6;spacingTop=-4;" vertex="1" parent="WIyWlLk6GJQsqaUBKTNV-1">
          <mxGeometry x="290" y="152.75" width="100" height="94.5" as="geometry" />
        </mxCell>
        <mxCell id="p7InJJvpdyXH1uWiS8rg-17" style="edgeStyle=orthogonalEdgeStyle;rounded=0;orthogonalLoop=1;jettySize=auto;html=1;exitX=0.5;exitY=1;exitDx=0;exitDy=0;entryX=1;entryY=0.5;entryDx=0;entryDy=0;" edge="1" parent="WIyWlLk6GJQsqaUBKTNV-1" source="p7InJJvpdyXH1uWiS8rg-13" target="p7InJJvpdyXH1uWiS8rg-11">
          <mxGeometry relative="1" as="geometry" />
        </mxCell>
        <mxCell id="p7InJJvpdyXH1uWiS8rg-13" value="Редактирование шаблона" style="rounded=1;whiteSpace=wrap;html=1;fontSize=12;glass=0;strokeWidth=1;shadow=0;" vertex="1" parent="WIyWlLk6GJQsqaUBKTNV-1">
          <mxGeometry x="430" y="103" width="120" height="40" as="geometry" />
        </mxCell>
        <mxCell id="p7InJJvpdyXH1uWiS8rg-24" style="edgeStyle=orthogonalEdgeStyle;rounded=0;orthogonalLoop=1;jettySize=auto;html=1;exitX=1;exitY=0.5;exitDx=0;exitDy=0;entryX=0;entryY=0.5;entryDx=0;entryDy=0;" edge="1" parent="WIyWlLk6GJQsqaUBKTNV-1" source="p7InJJvpdyXH1uWiS8rg-21" target="p7InJJvpdyXH1uWiS8rg-23">
          <mxGeometry relative="1" as="geometry" />
        </mxCell>
        <mxCell id="p7InJJvpdyXH1uWiS8rg-21" value="Согласование шаблона" style="rounded=1;whiteSpace=wrap;html=1;fontSize=12;glass=0;strokeWidth=1;shadow=0;" vertex="1" parent="WIyWlLk6GJQsqaUBKTNV-1">
          <mxGeometry x="430" y="369" width="120" height="40" as="geometry" />
        </mxCell>
        <mxCell id="p7InJJvpdyXH1uWiS8rg-25" style="edgeStyle=orthogonalEdgeStyle;rounded=0;orthogonalLoop=1;jettySize=auto;html=1;exitX=0.5;exitY=0;exitDx=0;exitDy=0;entryX=1;entryY=0.5;entryDx=0;entryDy=0;" edge="1" parent="WIyWlLk6GJQsqaUBKTNV-1" source="p7InJJvpdyXH1uWiS8rg-23" target="p7InJJvpdyXH1uWiS8rg-13">
          <mxGeometry relative="1" as="geometry" />
        </mxCell>
        <mxCell id="p7InJJvpdyXH1uWiS8rg-26" value="Нет" style="edgeLabel;html=1;align=center;verticalAlign=middle;resizable=0;points=[];" vertex="1" connectable="0" parent="p7InJJvpdyXH1uWiS8rg-25">
          <mxGeometry x="-0.1588" y="-1" relative="1" as="geometry">
            <mxPoint as="offset" />
          </mxGeometry>
        </mxCell>
        <mxCell id="p7InJJvpdyXH1uWiS8rg-29" style="edgeStyle=orthogonalEdgeStyle;rounded=0;orthogonalLoop=1;jettySize=auto;html=1;exitX=1;exitY=0.5;exitDx=0;exitDy=0;entryX=0;entryY=0.5;entryDx=0;entryDy=0;" edge="1" parent="WIyWlLk6GJQsqaUBKTNV-1" source="p7InJJvpdyXH1uWiS8rg-23" target="p7InJJvpdyXH1uWiS8rg-27">
          <mxGeometry relative="1" as="geometry" />
        </mxCell>
        <mxCell id="p7InJJvpdyXH1uWiS8rg-30" value="Да" style="edgeLabel;html=1;align=center;verticalAlign=middle;resizable=0;points=[];" vertex="1" connectable="0" parent="p7InJJvpdyXH1uWiS8rg-29">
          <mxGeometry x="-0.0657" relative="1" as="geometry">
            <mxPoint as="offset" />
          </mxGeometry>
        </mxCell>
        <mxCell id="p7InJJvpdyXH1uWiS8rg-23" value="Сохранить версию?" style="rhombus;whiteSpace=wrap;html=1;shadow=0;fontFamily=Helvetica;fontSize=12;align=center;strokeWidth=1;spacing=6;spacingTop=-4;" vertex="1" parent="WIyWlLk6GJQsqaUBKTNV-1">
          <mxGeometry x="610" y="342.25" width="100" height="93.5" as="geometry" />
        </mxCell>
        <mxCell id="p7InJJvpdyXH1uWiS8rg-31" style="edgeStyle=orthogonalEdgeStyle;rounded=0;orthogonalLoop=1;jettySize=auto;html=1;exitX=1;exitY=0.5;exitDx=0;exitDy=0;entryX=0;entryY=0.5;entryDx=0;entryDy=0;" edge="1" parent="WIyWlLk6GJQsqaUBKTNV-1" source="p7InJJvpdyXH1uWiS8rg-27" target="p7InJJvpdyXH1uWiS8rg-28">
          <mxGeometry relative="1" as="geometry" />
        </mxCell>
        <mxCell id="p7InJJvpdyXH1uWiS8rg-27" value="Сохраненная версия" style="rounded=1;whiteSpace=wrap;html=1;fontSize=12;glass=0;strokeWidth=1;shadow=0;" vertex="1" parent="WIyWlLk6GJQsqaUBKTNV-1">
          <mxGeometry x="780" y="369" width="130" height="40" as="geometry" />
        </mxCell>
        <mxCell id="p7InJJvpdyXH1uWiS8rg-28" value="Конец" style="ellipse;whiteSpace=wrap;html=1;aspect=fixed;" vertex="1" parent="WIyWlLk6GJQsqaUBKTNV-1">
          <mxGeometry x="960" y="365.5" width="47" height="47" as="geometry" />
        </mxCell>
        <mxCell id="p7InJJvpdyXH1uWiS8rg-33" value="" style="endArrow=none;dashed=1;html=1;rounded=0;" edge="1" parent="WIyWlLk6GJQsqaUBKTNV-1">
          <mxGeometry width="50" height="50" relative="1" as="geometry">
            <mxPoint x="1080" y="500" as="sourcePoint" />
            <mxPoint x="1080" y="20" as="targetPoint" />
          </mxGeometry>
        </mxCell>
        <mxCell id="p7InJJvpdyXH1uWiS8rg-34" value="" style="endArrow=none;dashed=1;html=1;rounded=0;" edge="1" parent="WIyWlLk6GJQsqaUBKTNV-1">
          <mxGeometry width="50" height="50" relative="1" as="geometry">
            <mxPoint x="1200" y="500" as="sourcePoint" />
            <mxPoint x="1200" y="20" as="targetPoint" />
          </mxGeometry>
        </mxCell>
        <mxCell id="p7InJJvpdyXH1uWiS8rg-65" value="" style="endArrow=none;dashed=1;html=1;rounded=0;" edge="1" parent="WIyWlLk6GJQsqaUBKTNV-1">
          <mxGeometry width="50" height="50" relative="1" as="geometry">
            <mxPoint y="570" as="sourcePoint" />
            <mxPoint x="1200" y="570" as="targetPoint" />
          </mxGeometry>
        </mxCell>
        <mxCell id="p7InJJvpdyXH1uWiS8rg-67" value="&lt;span style=&quot;font-style: normal; font-variant-caps: normal; font-weight: 400; letter-spacing: normal; orphans: auto; text-align: start; text-indent: 0px; text-transform: none; white-space: normal; widows: auto; word-spacing: 0px; -webkit-text-stroke-width: 0px; text-decoration: none; caret-color: rgb(0, 0, 0); color: rgb(0, 0, 0); font-size: medium; float: none; display: inline !important;&quot;&gt;Клиент&lt;/span&gt;" style="text;html=1;align=center;verticalAlign=middle;whiteSpace=wrap;rounded=0;rotation=270;" vertex="1" parent="WIyWlLk6GJQsqaUBKTNV-1">
          <mxGeometry x="-22.75" y="855.63" width="83.5" height="30" as="geometry" />
        </mxCell>
        <mxCell id="p7InJJvpdyXH1uWiS8rg-68" value="&lt;span style=&quot;text-align: start; font-size: medium;&quot;&gt;Менеджер отдела продаж&lt;/span&gt;" style="text;html=1;align=center;verticalAlign=middle;whiteSpace=wrap;rounded=0;rotation=270;" vertex="1" parent="WIyWlLk6GJQsqaUBKTNV-1">
          <mxGeometry x="-55.25" y="720" width="148.5" height="30" as="geometry" />
        </mxCell>
        <mxCell id="p7InJJvpdyXH1uWiS8rg-69" value="" style="endArrow=none;dashed=1;html=1;rounded=0;" edge="1" parent="WIyWlLk6GJQsqaUBKTNV-1">
          <mxGeometry width="50" height="50" relative="1" as="geometry">
            <mxPoint x="41" y="1050" as="sourcePoint" />
            <mxPoint x="40" y="570" as="targetPoint" />
          </mxGeometry>
        </mxCell>
        <mxCell id="p7InJJvpdyXH1uWiS8rg-70" style="edgeStyle=orthogonalEdgeStyle;rounded=0;orthogonalLoop=1;jettySize=auto;html=1;exitX=1;exitY=0.5;exitDx=0;exitDy=0;entryX=0;entryY=0.5;entryDx=0;entryDy=0;" edge="1" parent="WIyWlLk6GJQsqaUBKTNV-1" source="p7InJJvpdyXH1uWiS8rg-71" target="p7InJJvpdyXH1uWiS8rg-73">
          <mxGeometry relative="1" as="geometry" />
        </mxCell>
        <mxCell id="p7InJJvpdyXH1uWiS8rg-71" value="Начало" style="ellipse;whiteSpace=wrap;html=1;aspect=fixed;" vertex="1" parent="WIyWlLk6GJQsqaUBKTNV-1">
          <mxGeometry x="62" y="847.13" width="47" height="47" as="geometry" />
        </mxCell>
        <mxCell id="p7InJJvpdyXH1uWiS8rg-72" style="edgeStyle=orthogonalEdgeStyle;rounded=0;orthogonalLoop=1;jettySize=auto;html=1;exitX=1;exitY=0.5;exitDx=0;exitDy=0;entryX=0;entryY=0.5;entryDx=0;entryDy=0;" edge="1" parent="WIyWlLk6GJQsqaUBKTNV-1" source="p7InJJvpdyXH1uWiS8rg-73" target="p7InJJvpdyXH1uWiS8rg-125">
          <mxGeometry relative="1" as="geometry">
            <mxPoint x="290" y="870.13" as="targetPoint" />
          </mxGeometry>
        </mxCell>
        <mxCell id="p7InJJvpdyXH1uWiS8rg-73" value="Подать заявку" style="rounded=1;whiteSpace=wrap;html=1;fontSize=12;glass=0;strokeWidth=1;shadow=0;" vertex="1" parent="WIyWlLk6GJQsqaUBKTNV-1">
          <mxGeometry x="140" y="850.63" width="120" height="40" as="geometry" />
        </mxCell>
        <mxCell id="p7InJJvpdyXH1uWiS8rg-91" value="" style="endArrow=none;dashed=1;html=1;rounded=0;" edge="1" parent="WIyWlLk6GJQsqaUBKTNV-1">
          <mxGeometry width="50" height="50" relative="1" as="geometry">
            <mxPoint x="1080" y="1051" as="sourcePoint" />
            <mxPoint x="1080" y="571" as="targetPoint" />
          </mxGeometry>
        </mxCell>
        <mxCell id="p7InJJvpdyXH1uWiS8rg-92" value="" style="endArrow=none;dashed=1;html=1;rounded=0;" edge="1" parent="WIyWlLk6GJQsqaUBKTNV-1">
          <mxGeometry width="50" height="50" relative="1" as="geometry">
            <mxPoint x="1200" y="1051" as="sourcePoint" />
            <mxPoint x="1200" y="571" as="targetPoint" />
          </mxGeometry>
        </mxCell>
        <mxCell id="p7InJJvpdyXH1uWiS8rg-93" value="" style="endArrow=none;dashed=1;html=1;rounded=0;" edge="1" parent="WIyWlLk6GJQsqaUBKTNV-1">
          <mxGeometry width="50" height="50" relative="1" as="geometry">
            <mxPoint y="1331" as="sourcePoint" />
            <mxPoint x="1080" y="1332" as="targetPoint" />
          </mxGeometry>
        </mxCell>
        <mxCell id="p7InJJvpdyXH1uWiS8rg-95" value="" style="endArrow=none;dashed=1;html=1;rounded=0;" edge="1" parent="WIyWlLk6GJQsqaUBKTNV-1">
          <mxGeometry width="50" height="50" relative="1" as="geometry">
            <mxPoint y="1531" as="sourcePoint" />
            <mxPoint x="1200" y="1532" as="targetPoint" />
          </mxGeometry>
        </mxCell>
        <mxCell id="p7InJJvpdyXH1uWiS8rg-96" value="&lt;span style=&quot;text-align: start; font-size: medium;&quot;&gt;Менеджер производственного отдела&lt;/span&gt;" style="text;html=1;align=center;verticalAlign=middle;whiteSpace=wrap;rounded=0;rotation=270;" vertex="1" parent="WIyWlLk6GJQsqaUBKTNV-1">
          <mxGeometry x="-62" y="1175" width="180" height="30" as="geometry" />
        </mxCell>
        <mxCell id="p7InJJvpdyXH1uWiS8rg-97" value="&lt;span style=&quot;text-align: start; font-size: medium;&quot;&gt;Менеджер юридического отдела&lt;/span&gt;" style="text;html=1;align=center;verticalAlign=middle;whiteSpace=wrap;rounded=0;rotation=270;" vertex="1" parent="WIyWlLk6GJQsqaUBKTNV-1">
          <mxGeometry x="-71" y="1416" width="180" height="30" as="geometry" />
        </mxCell>
        <mxCell id="p7InJJvpdyXH1uWiS8rg-98" value="" style="endArrow=none;dashed=1;html=1;rounded=0;" edge="1" parent="WIyWlLk6GJQsqaUBKTNV-1">
          <mxGeometry width="50" height="50" relative="1" as="geometry">
            <mxPoint x="41" y="1531" as="sourcePoint" />
            <mxPoint x="40" y="1051" as="targetPoint" />
          </mxGeometry>
        </mxCell>
        <mxCell id="p7InJJvpdyXH1uWiS8rg-120" value="" style="endArrow=none;dashed=1;html=1;rounded=0;" edge="1" parent="WIyWlLk6GJQsqaUBKTNV-1">
          <mxGeometry width="50" height="50" relative="1" as="geometry">
            <mxPoint x="1080" y="1532" as="sourcePoint" />
            <mxPoint x="1080" y="1052" as="targetPoint" />
          </mxGeometry>
        </mxCell>
        <mxCell id="p7InJJvpdyXH1uWiS8rg-121" value="" style="endArrow=none;dashed=1;html=1;rounded=0;" edge="1" parent="WIyWlLk6GJQsqaUBKTNV-1">
          <mxGeometry width="50" height="50" relative="1" as="geometry">
            <mxPoint x="1200" y="1532" as="sourcePoint" />
            <mxPoint x="1200" y="1052" as="targetPoint" />
          </mxGeometry>
        </mxCell>
        <mxCell id="p7InJJvpdyXH1uWiS8rg-128" style="edgeStyle=orthogonalEdgeStyle;rounded=0;orthogonalLoop=1;jettySize=auto;html=1;exitX=0.5;exitY=0;exitDx=0;exitDy=0;entryX=0;entryY=0.5;entryDx=0;entryDy=0;" edge="1" parent="WIyWlLk6GJQsqaUBKTNV-1" source="p7InJJvpdyXH1uWiS8rg-125" target="p7InJJvpdyXH1uWiS8rg-127">
          <mxGeometry relative="1" as="geometry" />
        </mxCell>
        <mxCell id="p7InJJvpdyXH1uWiS8rg-131" style="edgeStyle=orthogonalEdgeStyle;rounded=0;orthogonalLoop=1;jettySize=auto;html=1;exitX=1;exitY=0.5;exitDx=0;exitDy=0;entryX=0;entryY=0.5;entryDx=0;entryDy=0;" edge="1" parent="WIyWlLk6GJQsqaUBKTNV-1" source="p7InJJvpdyXH1uWiS8rg-125" target="p7InJJvpdyXH1uWiS8rg-141">
          <mxGeometry relative="1" as="geometry">
            <mxPoint x="460" y="870.6300000000001" as="targetPoint" />
          </mxGeometry>
        </mxCell>
        <mxCell id="p7InJJvpdyXH1uWiS8rg-132" style="edgeStyle=orthogonalEdgeStyle;rounded=0;orthogonalLoop=1;jettySize=auto;html=1;exitX=0.5;exitY=1;exitDx=0;exitDy=0;entryX=0;entryY=0.5;entryDx=0;entryDy=0;" edge="1" parent="WIyWlLk6GJQsqaUBKTNV-1" source="p7InJJvpdyXH1uWiS8rg-125" target="p7InJJvpdyXH1uWiS8rg-148">
          <mxGeometry relative="1" as="geometry">
            <mxPoint x="466" y="1085" as="targetPoint" />
          </mxGeometry>
        </mxCell>
        <mxCell id="p7InJJvpdyXH1uWiS8rg-125" value="" style="rhombus;whiteSpace=wrap;html=1;shadow=0;fontFamily=Helvetica;fontSize=12;align=center;strokeWidth=1;spacing=6;spacingTop=-4;" vertex="1" parent="WIyWlLk6GJQsqaUBKTNV-1">
          <mxGeometry x="299" y="841.25" width="61" height="58.75" as="geometry" />
        </mxCell>
        <mxCell id="p7InJJvpdyXH1uWiS8rg-134" style="edgeStyle=orthogonalEdgeStyle;rounded=0;orthogonalLoop=1;jettySize=auto;html=1;exitX=1;exitY=0.5;exitDx=0;exitDy=0;entryX=0;entryY=0.5;entryDx=0;entryDy=0;" edge="1" parent="WIyWlLk6GJQsqaUBKTNV-1" source="p7InJJvpdyXH1uWiS8rg-127" target="p7InJJvpdyXH1uWiS8rg-133">
          <mxGeometry relative="1" as="geometry" />
        </mxCell>
        <mxCell id="p7InJJvpdyXH1uWiS8rg-127" value="Согласование заявки" style="rounded=1;whiteSpace=wrap;html=1;fontSize=12;glass=0;strokeWidth=1;shadow=0;" vertex="1" parent="WIyWlLk6GJQsqaUBKTNV-1">
          <mxGeometry x="460" y="650" width="120" height="40" as="geometry" />
        </mxCell>
        <mxCell id="p7InJJvpdyXH1uWiS8rg-137" style="edgeStyle=orthogonalEdgeStyle;rounded=0;orthogonalLoop=1;jettySize=auto;html=1;exitX=0.5;exitY=1;exitDx=0;exitDy=0;entryX=1;entryY=0.5;entryDx=0;entryDy=0;" edge="1" parent="WIyWlLk6GJQsqaUBKTNV-1" source="p7InJJvpdyXH1uWiS8rg-133" target="p7InJJvpdyXH1uWiS8rg-135">
          <mxGeometry relative="1" as="geometry" />
        </mxCell>
        <mxCell id="p7InJJvpdyXH1uWiS8rg-139" value="Нет" style="edgeLabel;html=1;align=center;verticalAlign=middle;resizable=0;points=[];" vertex="1" connectable="0" parent="p7InJJvpdyXH1uWiS8rg-137">
          <mxGeometry x="-0.1449" y="2" relative="1" as="geometry">
            <mxPoint as="offset" />
          </mxGeometry>
        </mxCell>
        <mxCell id="p7InJJvpdyXH1uWiS8rg-155" style="edgeStyle=orthogonalEdgeStyle;rounded=0;orthogonalLoop=1;jettySize=auto;html=1;exitX=1;exitY=0.5;exitDx=0;exitDy=0;entryX=0.5;entryY=0;entryDx=0;entryDy=0;" edge="1" parent="WIyWlLk6GJQsqaUBKTNV-1" source="p7InJJvpdyXH1uWiS8rg-133" target="p7InJJvpdyXH1uWiS8rg-154">
          <mxGeometry relative="1" as="geometry" />
        </mxCell>
        <mxCell id="p7InJJvpdyXH1uWiS8rg-158" value="Да" style="edgeLabel;html=1;align=center;verticalAlign=middle;resizable=0;points=[];" vertex="1" connectable="0" parent="p7InJJvpdyXH1uWiS8rg-155">
          <mxGeometry x="-0.6237" y="-2" relative="1" as="geometry">
            <mxPoint as="offset" />
          </mxGeometry>
        </mxCell>
        <mxCell id="p7InJJvpdyXH1uWiS8rg-133" value="Сохранить версию?" style="rhombus;whiteSpace=wrap;html=1;shadow=0;fontFamily=Helvetica;fontSize=12;align=center;strokeWidth=1;spacing=6;spacingTop=-4;" vertex="1" parent="WIyWlLk6GJQsqaUBKTNV-1">
          <mxGeometry x="710" y="623.25" width="100" height="93.5" as="geometry" />
        </mxCell>
        <mxCell id="p7InJJvpdyXH1uWiS8rg-138" style="edgeStyle=orthogonalEdgeStyle;rounded=0;orthogonalLoop=1;jettySize=auto;html=1;exitX=0;exitY=0.5;exitDx=0;exitDy=0;entryX=0.5;entryY=1;entryDx=0;entryDy=0;" edge="1" parent="WIyWlLk6GJQsqaUBKTNV-1" source="p7InJJvpdyXH1uWiS8rg-135" target="p7InJJvpdyXH1uWiS8rg-127">
          <mxGeometry relative="1" as="geometry" />
        </mxCell>
        <mxCell id="p7InJJvpdyXH1uWiS8rg-135" value="Редактирование заявки" style="rounded=1;whiteSpace=wrap;html=1;fontSize=12;glass=0;strokeWidth=1;shadow=0;" vertex="1" parent="WIyWlLk6GJQsqaUBKTNV-1">
          <mxGeometry x="580" y="750" width="120" height="40" as="geometry" />
        </mxCell>
        <mxCell id="p7InJJvpdyXH1uWiS8rg-140" style="edgeStyle=orthogonalEdgeStyle;rounded=0;orthogonalLoop=1;jettySize=auto;html=1;exitX=1;exitY=0.5;exitDx=0;exitDy=0;entryX=0;entryY=0.5;entryDx=0;entryDy=0;" edge="1" source="p7InJJvpdyXH1uWiS8rg-141" target="p7InJJvpdyXH1uWiS8rg-144" parent="WIyWlLk6GJQsqaUBKTNV-1">
          <mxGeometry relative="1" as="geometry" />
        </mxCell>
        <mxCell id="p7InJJvpdyXH1uWiS8rg-141" value="Согласование заявки" style="rounded=1;whiteSpace=wrap;html=1;fontSize=12;glass=0;strokeWidth=1;shadow=0;" vertex="1" parent="WIyWlLk6GJQsqaUBKTNV-1">
          <mxGeometry x="460" y="850.62" width="120" height="40" as="geometry" />
        </mxCell>
        <mxCell id="p7InJJvpdyXH1uWiS8rg-142" style="edgeStyle=orthogonalEdgeStyle;rounded=0;orthogonalLoop=1;jettySize=auto;html=1;exitX=0.5;exitY=1;exitDx=0;exitDy=0;entryX=1;entryY=0.5;entryDx=0;entryDy=0;" edge="1" source="p7InJJvpdyXH1uWiS8rg-144" target="p7InJJvpdyXH1uWiS8rg-146" parent="WIyWlLk6GJQsqaUBKTNV-1">
          <mxGeometry relative="1" as="geometry" />
        </mxCell>
        <mxCell id="p7InJJvpdyXH1uWiS8rg-143" value="Нет" style="edgeLabel;html=1;align=center;verticalAlign=middle;resizable=0;points=[];" vertex="1" connectable="0" parent="p7InJJvpdyXH1uWiS8rg-142">
          <mxGeometry x="-0.1449" y="2" relative="1" as="geometry">
            <mxPoint as="offset" />
          </mxGeometry>
        </mxCell>
        <mxCell id="p7InJJvpdyXH1uWiS8rg-156" style="edgeStyle=orthogonalEdgeStyle;rounded=0;orthogonalLoop=1;jettySize=auto;html=1;exitX=1;exitY=0.5;exitDx=0;exitDy=0;entryX=0;entryY=0.5;entryDx=0;entryDy=0;" edge="1" parent="WIyWlLk6GJQsqaUBKTNV-1" source="p7InJJvpdyXH1uWiS8rg-144" target="p7InJJvpdyXH1uWiS8rg-154">
          <mxGeometry relative="1" as="geometry" />
        </mxCell>
        <mxCell id="p7InJJvpdyXH1uWiS8rg-159" value="Да" style="edgeLabel;html=1;align=center;verticalAlign=middle;resizable=0;points=[];" vertex="1" connectable="0" parent="p7InJJvpdyXH1uWiS8rg-156">
          <mxGeometry x="0.021" y="2" relative="1" as="geometry">
            <mxPoint as="offset" />
          </mxGeometry>
        </mxCell>
        <mxCell id="p7InJJvpdyXH1uWiS8rg-144" value="Сохранить версию?" style="rhombus;whiteSpace=wrap;html=1;shadow=0;fontFamily=Helvetica;fontSize=12;align=center;strokeWidth=1;spacing=6;spacingTop=-4;" vertex="1" parent="WIyWlLk6GJQsqaUBKTNV-1">
          <mxGeometry x="710" y="823.87" width="100" height="93.5" as="geometry" />
        </mxCell>
        <mxCell id="p7InJJvpdyXH1uWiS8rg-145" style="edgeStyle=orthogonalEdgeStyle;rounded=0;orthogonalLoop=1;jettySize=auto;html=1;exitX=0;exitY=0.5;exitDx=0;exitDy=0;entryX=0.5;entryY=1;entryDx=0;entryDy=0;" edge="1" source="p7InJJvpdyXH1uWiS8rg-146" target="p7InJJvpdyXH1uWiS8rg-141" parent="WIyWlLk6GJQsqaUBKTNV-1">
          <mxGeometry relative="1" as="geometry" />
        </mxCell>
        <mxCell id="p7InJJvpdyXH1uWiS8rg-146" value="Редактирование заявки" style="rounded=1;whiteSpace=wrap;html=1;fontSize=12;glass=0;strokeWidth=1;shadow=0;" vertex="1" parent="WIyWlLk6GJQsqaUBKTNV-1">
          <mxGeometry x="580" y="946.75" width="120" height="40" as="geometry" />
        </mxCell>
        <mxCell id="p7InJJvpdyXH1uWiS8rg-147" style="edgeStyle=orthogonalEdgeStyle;rounded=0;orthogonalLoop=1;jettySize=auto;html=1;exitX=1;exitY=0.5;exitDx=0;exitDy=0;entryX=0;entryY=0.5;entryDx=0;entryDy=0;" edge="1" source="p7InJJvpdyXH1uWiS8rg-148" target="p7InJJvpdyXH1uWiS8rg-151" parent="WIyWlLk6GJQsqaUBKTNV-1">
          <mxGeometry relative="1" as="geometry" />
        </mxCell>
        <mxCell id="p7InJJvpdyXH1uWiS8rg-148" value="Согласование заявки" style="rounded=1;whiteSpace=wrap;html=1;fontSize=12;glass=0;strokeWidth=1;shadow=0;" vertex="1" parent="WIyWlLk6GJQsqaUBKTNV-1">
          <mxGeometry x="470" y="1056.75" width="120" height="40" as="geometry" />
        </mxCell>
        <mxCell id="p7InJJvpdyXH1uWiS8rg-149" style="edgeStyle=orthogonalEdgeStyle;rounded=0;orthogonalLoop=1;jettySize=auto;html=1;exitX=0.5;exitY=1;exitDx=0;exitDy=0;entryX=1;entryY=0.5;entryDx=0;entryDy=0;" edge="1" source="p7InJJvpdyXH1uWiS8rg-151" target="p7InJJvpdyXH1uWiS8rg-153" parent="WIyWlLk6GJQsqaUBKTNV-1">
          <mxGeometry relative="1" as="geometry" />
        </mxCell>
        <mxCell id="p7InJJvpdyXH1uWiS8rg-150" value="Нет" style="edgeLabel;html=1;align=center;verticalAlign=middle;resizable=0;points=[];" vertex="1" connectable="0" parent="p7InJJvpdyXH1uWiS8rg-149">
          <mxGeometry x="-0.1449" y="2" relative="1" as="geometry">
            <mxPoint as="offset" />
          </mxGeometry>
        </mxCell>
        <mxCell id="p7InJJvpdyXH1uWiS8rg-157" style="edgeStyle=orthogonalEdgeStyle;rounded=0;orthogonalLoop=1;jettySize=auto;html=1;exitX=1;exitY=0.5;exitDx=0;exitDy=0;entryX=0.5;entryY=1;entryDx=0;entryDy=0;" edge="1" parent="WIyWlLk6GJQsqaUBKTNV-1" source="p7InJJvpdyXH1uWiS8rg-151" target="p7InJJvpdyXH1uWiS8rg-154">
          <mxGeometry relative="1" as="geometry" />
        </mxCell>
        <mxCell id="p7InJJvpdyXH1uWiS8rg-160" value="Да" style="edgeLabel;html=1;align=center;verticalAlign=middle;resizable=0;points=[];" vertex="1" connectable="0" parent="p7InJJvpdyXH1uWiS8rg-157">
          <mxGeometry x="-0.5381" y="-2" relative="1" as="geometry">
            <mxPoint as="offset" />
          </mxGeometry>
        </mxCell>
        <mxCell id="p7InJJvpdyXH1uWiS8rg-151" value="Сохранить версию?" style="rhombus;whiteSpace=wrap;html=1;shadow=0;fontFamily=Helvetica;fontSize=12;align=center;strokeWidth=1;spacing=6;spacingTop=-4;" vertex="1" parent="WIyWlLk6GJQsqaUBKTNV-1">
          <mxGeometry x="720" y="1030" width="100" height="93.5" as="geometry" />
        </mxCell>
        <mxCell id="p7InJJvpdyXH1uWiS8rg-152" style="edgeStyle=orthogonalEdgeStyle;rounded=0;orthogonalLoop=1;jettySize=auto;html=1;exitX=0;exitY=0.5;exitDx=0;exitDy=0;entryX=0.5;entryY=1;entryDx=0;entryDy=0;" edge="1" source="p7InJJvpdyXH1uWiS8rg-153" target="p7InJJvpdyXH1uWiS8rg-148" parent="WIyWlLk6GJQsqaUBKTNV-1">
          <mxGeometry relative="1" as="geometry" />
        </mxCell>
        <mxCell id="p7InJJvpdyXH1uWiS8rg-153" value="Редактирование заявки" style="rounded=1;whiteSpace=wrap;html=1;fontSize=12;glass=0;strokeWidth=1;shadow=0;" vertex="1" parent="WIyWlLk6GJQsqaUBKTNV-1">
          <mxGeometry x="590" y="1156.75" width="120" height="40" as="geometry" />
        </mxCell>
        <mxCell id="p7InJJvpdyXH1uWiS8rg-154" value="" style="rhombus;whiteSpace=wrap;html=1;shadow=0;fontFamily=Helvetica;fontSize=12;align=center;strokeWidth=1;spacing=6;spacingTop=-4;" vertex="1" parent="WIyWlLk6GJQsqaUBKTNV-1">
          <mxGeometry x="910" y="841.24" width="61" height="58.75" as="geometry" />
        </mxCell>
      </root>
    </mxGraphModel>
  </diagram>
</mxfile>
